<?xml version="1.0" encoding="UTF-8"?>
<svg id="Layer_1" xmlns="http://www.w3.org/2000/svg" version="1.1" viewBox="0 0 128.36 164.22">
  <!-- Generator: Adobe Illustrator 29.8.7, SVG Export Plug-In . SVG Version: 2.1.1 Build 1)  -->
  <defs>
    <style>
      .st0 {
        fill: #e2c433;
      }

      .st1 {
        fill: #392303;
      }

      .st2 {
        fill: #3b2907;
      }

      .st3 {
        fill: #facb01;
      }

      .st4 {
        fill: #eccc3b;
      }

      .st5 {
        fill: #352304;
      }

      .st6 {
        fill: #322104;
      }

      .st7 {
        fill: #ebca36;
      }

      .st8 {
        fill: #110c02;
      }
    </style>
  </defs>
  <path class="st4" d="M57.35,160.4v-.35c.22-.33.42-.69.48-1.06.01-.07.35-.15.36-.27.03-.28-.34-.36-.36-.43-.68-2.5-1.55-1.15-3.36-2.11-.06-.19-.22-.31-.48-.35-.23-.03-.71-.03-.96,0-.35-.4-.9-.52-1.44-.7-1.09-.37-2.28-.67-3.36-1.06-.13-.13-.28-.29-.48-.35-.98-.33-1.56-.5-2.4-1.06-.2-.13-.28-.56-.48-.7,2.69.73,5.21,1.95,7.83,2.88,2.75.98,7.41,1.09,6.47,4.26-.41,1.37-1.49,1.07-1.82,1.31Z"/>
  <g>
    <path class="st3" d="M33.84,110.36c2-.7,1.78-1.83,3.04-3.03,10.22-9.84,19.42-19.67,29.11-29.55.78-.79,5.98-5.65,5.29-6.17l-50.86.53C53.04,48.95,86.61,26.46,120.94,4.64c.65-.11.91.03.71.52-.27.65-2.7,3.03-3.43,3.82-15.54,16.75-31.72,33.18-46.95,50.09l53.26.36c-10.31,5.81-21.34,10.87-31.84,16.45-.92.49-1.98,1.41-3.18,2.05l-.48.35c-.43.23-.93.43-1.44.7l-.48.35c-1.5.81-3.63,1.57-5.28,2.47l-.48.35c-3.4,1.85-9.9,4.61-11.52,7.4-.06.1.06.26,0,.35-.44-.02-.66.18-.96.35-.51.29-.59.4-.96.7-.2.16-.28.52-.48.7-.32.29-.89.52-1.44,1.06-.11.1-.18.41-.48.7-.12.11-.33.21-.48.35-.2.2-.28.51-.48.7-.12.12-.34.22-.48.35-.48.47-.96.94-1.44,1.41-.13.13-.35.22-.48.35l-4.8,4.93c-.17.11-.34.22-.48.35-.2.2-.28.51-.48.7-.12.12-.34.21-.48.35-1.29,1.28-2.55,2.6-3.84,3.88-.12.12-.34.21-.48.35-1.96,1.96-3.87,4.08-5.76,5.99-.13.13-.6.34-.96.7-.8.81-1.6,1.65-2.4,2.47-.12.12-.35.22-.48.35-.2.2-.28.5-.48.7-.11.12-.34.21-.48.35-.33.34-.63.71-.96,1.06-.12.12-.59.32-.96.7-.2.21-.28.5-.48.7-.11.12-.35.21-.48.35-.33.35-.64.7-.96,1.06-.1.11-.35.2-.48.35-.19.22-.3.48-.48.7-.06.07-.33.16-.48.35-.07.09.07.26,0,.35-.05.07-.34.16-.48.35-.06.09.06.26,0,.35-.04.06-.36.15-.48.35-.06.1.06.25,0,.35-.01.02-.34.09-.48.35-.09.17.09.52,0,.7l-1.44.36c-.22.35.47.64.48.7.03.23-.01.47,0,.7-2.26,1.46-2.03,5.12,0,6.7.15.67.25,1.47.48,2.11.05.15.28.28.48.35.06.22-.08.53,0,.7.13.27.47.33.48.35.05.1-.05.25,0,.35.1.2.46.31.48.35.08.19-.08.52,0,.7.12.27.47.33.48.35.05.11-.05.25,0,.35.11.24-.15.77.01,1.15.09.21,1.71.65.95,2.02h.96c.1.3-.08.73,0,1.05.05.18-.13.42.09.64.18.19,1.02.25,1.35.42.18.29.24.69.48,1.06.16.24.33.47.48.7.77,1.17,1.56,2.38,2.4,3.52s.48,1.81,2.88,2.11c.84.56,1.42.73,2.4,1.06.14.12.29.28.48.35,1.08.39,2.27.68,3.36,1.06l.49,1.06c.48.16.85-.34.95-.35.25-.03.73-.03.96,0,.15.13.3.25.48.35,1.81.97,2.68-.39,3.36,2.11v.7c-.06.37-.26.73-.48,1.06l-2.36.32c-.82-2.33-4.28-3.49-7.08-4.33-.25-.08-.98-1.45-2.56-.03l.96,1.58-4.31-1.05.48,1.76c-.77.12-1.28-.16-1.92-.35-.14-.04-.35.04-.48,0-.06-.02-.34-.47-.96-.7-.11-.04-.31.03-.48,0-.18-.03-.54-.74-.96.18-.3.67.93.5.98.7.36,1.61-1.81,1.17-2.9.53-.11-.07-.52-1.88-1.44-.7-.12-.03-.31.02-.48,0-.72-.08-1.13-.12-.97.53s4.41,4.35,1.24,4.4c-.49,0-7.41-3.29-8.3-3.77-5.49-2.95-6.44-8.32-10.08-12.35-3.99-4.42-14.12-8.41-14.05-13.99s7.79-7.68,12.02-11.29c11.22-13.71,18.02-29.67,28.12-43.84.48-.68,1.09-1.29,1.86-1.8h15.6c0,.71-1.06,3.03-1.56,3.43-.44.35-1.5.27-1.72.5-.29.32-.07,1.78-.57,2.49-.44.63-3.51,2.75-4.14,3.56-.36.46-.18,1.17-.64,1.65-3.38,1.97-5.02,5.18-7.35,7.64-9.1,9.58-18.96,19.66-28.37,29.37-2.01,2.07-6.27,6.41-2.44,8.47.75.4,1.35.21,1.7.33.13.19-.1.76,0,1.06.98.05,1.27.11,1.92-.35.07-.05-.06-.24,0-.35.98-1.66-.52-1.4-.48-2.6.05-1.63,7.18-8.57,8.95-10.39,3.2-3.31,6.14-6.57,9.28-10.26Z"/>
    <path class="st4" d="M43.43,73.35l-24.71.35c-1.31-.13-1.61-.88-.74-1.6,21.51-14.85,42.85-29.88,64.8-44.39,12.59-8.32,25.94-17.48,39.13-25.18.75-.44,4.87-2.92,5.5-2.47l-53.75,58.32c5.49.26,11.07.26,16.58.19,9.18-.12,18.61-.55,27.79-.73,2.52-.05,6.31-.21,8.68,0,.82.07,1.67.09,1.65.89l-58.54,30.84c1.62-2.79,8.11-5.55,11.52-7.4.2-.11.33-.27.48-.35,1.65-.9,3.78-1.66,5.28-2.47.2-.11.33-.27.48-.35.51-.28,1.01-.48,1.44-.7.18-.1.31-.26.48-.35,1.2-.64,2.26-1.56,3.18-2.05,10.51-5.58,21.54-10.64,31.84-16.45l-53.26-.36c15.22-16.91,31.4-33.35,46.95-50.09.73-.79,3.16-3.17,3.43-3.82.2-.49-.05-.63-.71-.52C86.61,26.46,53.04,48.95,20.4,72.12l50.86-.53c.7.52-4.51,5.38-5.29,6.17-9.69,9.89-18.88,19.71-29.11,29.55-1.25,1.21-1.04,2.34-3.04,3.03-3.14,3.69-6.08,6.96-9.28,10.26-1.77,1.83-8.9,8.76-8.95,10.39-.04,1.2,1.45.94.48,2.6-.12-.13-.38-.23-.48-.35-1.29-1.58-1.24-2.88-.1-4.48,4.35-6.05,13.03-12.12,17.48-18.36.32-.17.71-.02.85-.07.19-.22.12-.89.54-1.17l35.45-36.89h-21.83c-.74,0-4.13.59-4.56,1.06Z"/>
    <path class="st8" d="M43.43,73.35c.43-.46,3.82-1.06,4.56-1.06h21.83l-35.45,36.89c-.43.29-.35.95-.54,1.17-.14.05-.53-.1-.85.07-4.45,6.24-13.13,12.31-17.48,18.36-1.15,1.6-1.19,2.9.1,4.48l-.48.35c-.31-.13-.64-.24-.96-.35-1.05-1.62-2.5-1.87-1.81-4.32,12.53-13.98,25.79-27.7,38.76-41.49,2.7-2.87,5.6-5.67,8.26-8.56.47-.51,3.71-3.83,3.25-4.13h-19.67c.25-.26.23-1.14.48-1.41Z"/>
    <path class="st7" d="M42.95,74.76h19.67c.46.3-2.78,3.62-3.25,4.13-2.67,2.89-5.56,5.69-8.26,8.56h-.48c.46-.48.28-1.19.64-1.65.63-.81,3.71-2.93,4.14-3.56.5-.71.28-2.17.57-2.49.21-.23,1.28-.15,1.72-.5.51-.4,1.56-2.72,1.56-3.43h-15.6c-.77.52-1.38,1.13-1.86,1.8-10.1,14.17-16.9,30.13-28.12,43.84-4.24,3.61-11.95,5.85-12.02,11.29s10.06,9.58,14.05,13.99c3.64,4.03,4.59,9.4,10.08,12.35.89.48,7.81,3.78,8.3,3.77,3.17-.06-1.08-3.77-1.24-4.4s.25-.61.97-.53l2.88,4.93c-2.22,3.12-5.62-.16-7.71-1.21-10.36-5.21-7.71-5.48-13.32-12.77s-23.24-12.71-12.07-22.13c3.75-3.16,8.35-4.96,11.51-8.82,10.45-12.77,16.17-31.06,27.83-43.17Z"/>
    <path class="st7" d="M40.55,157.93c.64.19,1.15.47,1.92.35l-.48-1.76,4.31,1.05-.96-1.58c1.58-1.42,2.31-.04,2.56.03,2.8.84,6.26,2,7.08,4.33l2.36-.32v.35c-.17.13-.31.21-.48.35h-2.4c-1.21-2.36-4.62-3.66-7.68-4.58,2.26,1.76,5.05,2.87,6.24,5.28-.63.5-.84,1.97-3.06,1.79l-.3-.73c-.8-2.03-2.05-3.94-5.03-4.58-.87.46.22.75.57.99,1.43,1.02,2.94,1.94,3.03,3.59s-1.12,1.63-3.04,1.34c-.71-.11-1.12-.6-1.28-.64.3-2.11-1.66-3.79-3.36-5.29ZM43.19,157.23c-.47.25.26.48.49.69.48-.23-.22-.47-.49-.69ZM51.11,160.4h-.95v1.41h.95v-1.41Z"/>
    <path class="st4" d="M69.83,89.92c-.82,1.32-2.06,2.56-3.24,3.79-8.32,8.69-27.72,24.56-32.06,33.57-.27.55.15,1.26-1.18,1.06.02-.23.01-.47,0-.7s.03-.47,0-.7c.51-.26.76-.64.96-1.06.09-.18-.09-.53,0-.7l.48-.35c.06-.1-.06-.25,0-.35l.48-.35c.06-.1-.06-.26,0-.35l.48-.35c.07-.09-.07-.26,0-.35l.48-.35c.18-.22.29-.49.48-.7l.48-.35c.32-.35.63-.71.96-1.06l.48-.35c.2-.21.28-.5.48-.7l.96-.7c.33-.35.62-.71.96-1.06l.48-.35c.2-.2.28-.5.48-.7l.48-.35c.8-.82,1.6-1.65,2.4-2.47l.96-.7c1.89-1.91,3.79-4.03,5.76-5.99l.48-.35c1.29-1.28,2.55-2.59,3.84-3.88l.48-.35c.2-.2.28-.51.48-.7l.48-.35,4.8-4.93.48-.35c.48-.47.96-.94,1.44-1.41l.48-.35c.2-.2.28-.51.48-.7l.48-.35c.3-.29.37-.6.48-.7l1.44-1.06c.2-.18.28-.54.48-.7l.96-.7c.3-.17.52-.37.96-.35Z"/>
    <path class="st7" d="M38.63,157.23c.37,1.17,1.84,1.76,2.59,2.85.71,1.03.62,2.23,1.73,3.14-.57.11-1.23.76-1.9.91-1.33.29-3.53-.07-3.38-1.26.02-.14.6-.34.41-1.13-.07-.27-2.11-2.93-2.33-3.1-.06-.05-1.36-.68-1.44-.7.92-1.18,1.33.64,1.44.7,1.09.64,3.26,1.08,2.9-.53-.04-.2-1.28-.03-.98-.7.42-.92.77-.21.96-.18Z"/>
    <path class="st4" d="M33.36,133.61l11.04,17.97c-.5-.37-1.34-.71-1.92-1.06-.84-1.15-1.63-2.35-2.4-3.52l-.48-.7c-.24-.37-.3-.77-.48-1.06-.37-.59-.35-1.25-1.44-1.06-.08-.32.1-.76,0-1.06-.35-1.1-.78-2.37-1.92-3.17-.05-.11.05-.25,0-.35l-.48-.35c-.08-.19.08-.51,0-.7l-.48-.35c-.05-.1.05-.25,0-.35l-.48-.35c-.08-.17.06-.49,0-.7-.04-.16-.26-.3-.48-.35-.23-.65-.33-1.44-.48-2.11-.05-.22.04-.48,0-.7Z"/>
    <path class="st2" d="M54.47,160.75v.35c-.39-.03-1.19.15-1.44.35-1.19-2.41-3.98-3.52-6.24-5.28,3.06.91,6.47,2.22,7.68,4.58Z"/>
    <path class="st5" d="M40.07,157.93c.13.04.34-.04.48,0,1.7,1.49,3.65,3.18,3.36,5.29-.16-.04-.78-.03-.96,0-1.1-.9-1.02-2.1-1.73-3.14-.75-1.09-2.23-1.68-2.59-2.85.17.03.37-.04.48,0l.96.7Z"/>
    <path class="st6" d="M35.76,158.63c.22.17,2.27,2.83,2.33,3.1.19.78-.4.99-.41,1.13h-.96l-2.88-4.93c.17.02.36-.03.48,0,.08.02,1.38.66,1.44.7Z"/>
    <path class="st1" d="M49.67,162.51h-1.44c-.08-1.65-1.6-2.57-3.03-3.59-.34-.25-1.44-.53-.57-.99,2.99.65,4.24,2.55,5.03,4.58Z"/>
    <path class="st7" d="M33.36,128.33c-.02.23.01.47,0,.7-.09,1.64-.22,2,0,3.88.03.23-.04.48,0,.7s-.05.48,0,.7c-2.03-1.58-2.26-5.23,0-6.7.01.23.02.47,0,.7Z"/>
    <path class="st4" d="M33.36,132.91c-.22-1.88-.09-2.24,0-3.88.8.99.81,2.86,0,3.88Z"/>
    <path class="st4" d="M56.87,160.75c-.12.1.3.63-.26.72-1.1.19-1.78-.35-2.14-.37v-.35h2.4Z"/>
    <path class="st7" d="M44.39,151.59c.16.12.32.24.48.35.2.15.28.58.48.7-2.39-.31-2.04-.97-2.88-2.11.58.34,1.42.69,1.92,1.06Z"/>
    <path class="st0" d="M14.16,133.26c-.35-.12-.95.08-1.7-.33-3.83-2.07.43-6.4,2.44-8.47,9.41-9.71,19.27-19.79,28.37-29.37,2.34-2.46,3.98-5.67,7.35-7.64h.48c-12.97,13.79-26.23,27.51-38.76,41.49-.68,2.45.77,2.71,1.81,4.32Z"/>
    <path class="st4" d="M15.12,133.61c.28.11.51.38.96.35-.65.46-.94.41-1.92.35-.1-.3.12-.86,0-1.06.32.11.65.23.96.35Z"/>
    <path class="st7" d="M37.68,143.13h-.96c.76-1.37-.86-1.8-.95-2.02-.16-.39.1-.91-.01-1.15,1.14.8,1.57,2.07,1.92,3.17Z"/>
    <path class="st7" d="M53.03,155.82c-.1.01-.47.51-.95.35l-.49-1.06c.54.19,1.09.31,1.44.7Z"/>
    <path class="st7" d="M37.68,144.19c1.09-.19,1.07.46,1.44,1.06-.34-.17-1.17-.23-1.35-.42-.22-.22-.04-.46-.09-.64Z"/>
    <path class="st7" d="M33.36,126.92c0-.06-.7-.35-.48-.7l1.44-.36c-.2.41-.45.79-.96,1.06Z"/>
    <path class="st0" d="M16.08,133.61c-.06.11.07.3,0,.35-.45.03-.68-.24-.96-.35l.48-.35c.1.12.36.22.48.35Z"/>
    <path class="st7" d="M40.07,147.01c-.15-.23-.32-.46-.48-.7l.48.7Z"/>
    <path class="st7" d="M57.83,158.99v-.7c.02.07.38.15.36.43-.01.13-.35.2-.36.27Z"/>
    <path class="st7" d="M34.8,124.45c.12-.2.44-.29.48-.35l-.48.35Z"/>
    <path class="st7" d="M34.32,125.16c.14-.26.47-.33.48-.35l-.48.35Z"/>
    <path class="st7" d="M35.28,123.75c.14-.2.43-.29.48-.35l-.48.35Z"/>
    <path class="st7" d="M35.76,123.04c.15-.19.42-.28.48-.35l-.48.35Z"/>
    <path class="st7" d="M55.91,102.95c.14-.14.36-.23.48-.35l-.48.35Z"/>
    <path class="st7" d="M56.87,101.9c.13-.13.31-.25.48-.35l-.48.35Z"/>
    <path class="st7" d="M44.87,113.88c.36-.37.83-.57.96-.7l-.96.7Z"/>
    <path class="st7" d="M34.32,136.79c-.2-.07-.43-.2-.48-.35.22.05.44.19.48.35Z"/>
    <path class="st7" d="M34.8,137.84s-.35-.09-.48-.35l.48.35Z"/>
    <path class="st7" d="M35.28,138.55s-.38-.16-.48-.35l.48.35Z"/>
    <path class="st7" d="M35.76,139.6s-.36-.09-.48-.35l.48.35Z"/>
    <path class="st7" d="M62.15,96.61c.13-.13.35-.22.48-.35l-.48.35Z"/>
    <path class="st7" d="M64.07,94.85c.14-.14.36-.23.48-.35l-.48.35Z"/>
    <path class="st7" d="M51.59,107.18c.14-.14.36-.24.48-.35l-.48.35Z"/>
    <path class="st7" d="M65.03,93.79c.15-.14.36-.24.48-.35l-.48.35Z"/>
    <path class="st7" d="M65.99,92.73c.55-.53,1.12-.77,1.44-1.06l-1.44,1.06Z"/>
    <path class="st7" d="M48.23,154.05c-.19-.07-.34-.24-.48-.35.2.07.35.23.48.35Z"/>
    <path class="st7" d="M38.16,120.57c.13-.14.37-.24.48-.35l-.48.35Z"/>
    <path class="st7" d="M54.47,156.17c-.18-.1-.33-.23-.48-.35.26.04.42.16.48.35Z"/>
    <path class="st7" d="M67.91,90.97c.37-.3.45-.41.96-.7l-.96.7Z"/>
    <path class="st7" d="M39.11,119.52c.37-.38.84-.58.96-.7l-.96.7Z"/>
    <path class="st7" d="M40.07,157.93l-.96-.7c.62.23.9.68.96.7Z"/>
    <path class="st7" d="M81.34,82.16l.48-.35c-.15.08-.28.25-.48.35Z"/>
    <path class="st7" d="M41.03,117.76c.14-.14.37-.24.48-.35l-.48.35Z"/>
    <path class="st7" d="M87.1,79.34l.48-.35c-.15.08-.28.25-.48.35Z"/>
    <path class="st7" d="M41.99,116.7c.13-.13.36-.23.48-.35l-.48.35Z"/>
    <path class="st7" d="M89.02,78.29l.48-.35c-.17.09-.3.26-.48.35Z"/>
    <path class="st7" d="M36.72,121.98c.13-.15.38-.24.48-.35l-.48.35Z"/>
    <rect class="st3" x="50.15" y="160.4" width=".95" height="1.41"/>
    <path class="st1" d="M43.19,157.23c.27.22.97.46.49.69-.23-.21-.96-.45-.49-.69Z"/>
  </g>
</svg>