<?xml version="1.0" encoding="UTF-8"?>
<svg id="Layer_1" data-name="Layer 1" xmlns="http://www.w3.org/2000/svg" viewBox="0 0 94.33 164.22">
  <defs>
    <style>
      .cls-1 {
        fill: #e2c433;
      }

      .cls-2 {
        fill: #392303;
      }

      .cls-3 {
        fill: #3b2907;
      }

      .cls-4 {
        fill: #facb01;
      }

      .cls-5 {
        fill: #eccc3b;
      }

      .cls-6 {
        fill: #352304;
      }

      .cls-7 {
        fill: #322104;
      }

      .cls-8 {
        fill: #ebca36;
      }

      .cls-9 {
        fill: #110c02;
      }
    </style>
  </defs>
  <path class="cls-5" d="M42.14,160.4v-.35c.16-.33.31-.69.35-1.06,0-.07.25-.15.26-.27.02-.28-.25-.36-.26-.43-.5-2.5-1.14-1.15-2.47-2.11-.04-.19-.16-.31-.35-.35-.17-.03-.52-.03-.71,0-.25-.4-.66-.52-1.06-.7-.8-.37-1.68-.67-2.47-1.06-.1-.13-.21-.29-.35-.35-.72-.33-1.15-.5-1.76-1.06-.14-.13-.2-.56-.35-.7,1.98.73,3.83,1.95,5.75,2.88,2.02.98,5.45,1.09,4.75,4.26-.3,1.37-1.09,1.07-1.34,1.31Z"/>
  <g>
    <path class="cls-4" d="M24.86,110.36c1.47-.7,1.31-1.83,2.23-3.03,7.51-9.84,14.27-19.67,21.39-29.55.57-.79,4.4-5.65,3.89-6.17l-37.38.53C38.97,48.95,63.65,26.46,88.87,4.64c.48-.11.67.03.52.52-.2.65-1.98,3.03-2.52,3.82-11.42,16.75-23.31,33.18-34.5,50.09l39.14.36c-7.57,5.81-15.68,10.87-23.4,16.45-.68.49-1.46,1.41-2.34,2.05l-.35.35c-.31.23-.68.43-1.06.7l-.35.35c-1.1.81-2.66,1.57-3.88,2.47l-.35.35c-2.5,1.85-7.27,4.61-8.46,7.4-.04.1.04.26,0,.35-.32-.02-.48.18-.71.35-.37.29-.43.4-.71.7-.15.16-.2.52-.35.7-.24.29-.65.52-1.06,1.06-.08.1-.13.41-.35.7-.09.11-.25.21-.35.35-.15.2-.2.51-.35.7-.09.12-.25.22-.35.35-.35.47-.71.94-1.06,1.41-.09.13-.26.22-.35.35l-3.53,4.93c-.13.11-.25.22-.35.35-.15.2-.21.51-.35.7-.09.12-.25.21-.35.35-.95,1.28-1.88,2.6-2.82,3.88-.09.12-.25.21-.35.35-1.44,1.96-2.85,4.08-4.23,5.99-.1.13-.44.34-.71.7-.59.81-1.17,1.65-1.76,2.47-.09.12-.26.22-.35.35-.15.2-.21.5-.35.7-.08.12-.25.21-.35.35-.25.34-.46.71-.71,1.06-.09.12-.44.32-.71.7-.15.21-.21.5-.35.7-.08.12-.26.21-.35.35-.24.35-.47.7-.71,1.06-.07.11-.26.2-.35.35-.14.22-.22.48-.35.7-.04.07-.24.16-.35.35-.05.09.05.26,0,.35-.04.07-.25.16-.35.35-.05.09.05.26,0,.35-.03.06-.27.15-.35.35-.04.1.04.25,0,.35,0,.02-.25.09-.35.35-.07.17.07.52,0,.7l-1.06.36c-.16.35.35.64.35.7.02.23-.01.47,0,.7-1.66,1.46-1.49,5.12,0,6.7.11.67.18,1.47.35,2.11.04.15.21.28.35.35.04.22-.06.53,0,.7.09.27.34.33.35.35.04.1-.04.25,0,.35.07.2.34.31.35.35.06.19-.06.52,0,.7.09.27.34.33.35.35.04.11-.04.25,0,.35.08.24-.11.77,0,1.15.07.21,1.26.65.7,2.02h.7c.07.3-.06.73,0,1.05.03.18-.1.42.06.64.14.19.75.25.99.42.13.29.18.69.35,1.06.12.24.24.47.35.7.57,1.17,1.15,2.38,1.76,3.52s.36,1.81,2.12,2.11c.62.56,1.04.73,1.76,1.06.1.12.21.28.35.35.79.39,1.67.68,2.47,1.06l.36,1.06c.36.16.63-.34.7-.35.18-.03.53-.03.71,0,.11.13.22.25.35.35,1.33.97,1.97-.39,2.47,2.11v.7c-.05.37-.19.73-.35,1.06l-1.73.32c-.6-2.33-3.15-3.49-5.2-4.33-.19-.08-.72-1.45-1.88-.03l.71,1.58-3.17-1.05.35,1.76c-.57.12-.94-.16-1.41-.35-.1-.04-.25.04-.35,0-.05-.02-.25-.47-.71-.7-.08-.04-.23.03-.35,0-.13-.03-.4-.74-.7.18-.22.67.68.5.72.7.26,1.61-1.33,1.17-2.13.53-.08-.07-.38-1.88-1.06-.7-.09-.03-.23.02-.35,0-.53-.08-.83-.12-.71.53s3.24,4.35.91,4.4c-.36,0-5.44-3.29-6.1-3.77-4.04-2.95-4.74-8.32-7.41-12.35-2.93-4.42-10.37-8.41-10.32-13.99s5.72-7.68,8.83-11.29c8.24-13.71,13.24-29.67,20.66-43.84.35-.68.8-1.29,1.37-1.8h11.46c0,.71-.78,3.03-1.15,3.43-.32.35-1.11.27-1.26.5-.21.32-.05,1.78-.42,2.49-.32.63-2.58,2.75-3.05,3.56-.26.46-.13,1.17-.47,1.65-2.48,1.97-3.69,5.18-5.4,7.64-6.69,9.58-13.94,19.66-20.85,29.37-1.47,2.07-4.6,6.41-1.79,8.47.55.4.99.21,1.25.33.09.19-.07.76,0,1.06.72.05.93.11,1.41-.35.05-.05-.05-.24,0-.35.72-1.66-.38-1.4-.35-2.6.04-1.63,5.28-8.57,6.58-10.39,2.35-3.31,4.51-6.57,6.82-10.26Z"/>
    <path class="cls-5" d="M31.92,73.35l-18.16.35c-.96-.13-1.18-.88-.55-1.6,15.81-14.85,31.49-29.88,47.61-44.39,9.25-8.32,19.06-17.48,28.75-25.18.55-.44,3.58-2.92,4.04-2.47l-39.49,58.32c4.03.26,8.13.26,12.18.19,6.75-.12,13.68-.55,20.42-.73,1.85-.05,4.64-.21,6.38,0,.61.07,1.23.09,1.21.89l-43.02,30.84c1.19-2.79,5.96-5.55,8.46-7.4.15-.11.24-.27.35-.35,1.21-.9,2.78-1.66,3.88-2.47.14-.11.24-.27.35-.35.38-.28.75-.48,1.06-.7.13-.1.23-.26.35-.35.88-.64,1.66-1.56,2.34-2.05,7.72-5.58,15.83-10.64,23.4-16.45l-39.14-.36c11.19-16.91,23.08-33.35,34.5-50.09.54-.79,2.32-3.17,2.52-3.82.15-.49-.04-.63-.52-.52C63.65,26.46,38.97,48.95,14.99,72.12l37.38-.53c.51.52-3.32,5.38-3.89,6.17-7.12,9.89-13.88,19.71-21.39,29.55-.92,1.21-.76,2.34-2.23,3.03-2.31,3.69-4.47,6.96-6.82,10.26-1.3,1.83-6.54,8.76-6.58,10.39-.03,1.2,1.07.94.35,2.6-.09-.13-.28-.23-.35-.35-.95-1.58-.91-2.88-.07-4.48,3.19-6.05,9.58-12.12,12.84-18.36.24-.17.52-.02.63-.07.14-.22.08-.89.4-1.17l26.05-36.89h-16.04c-.54,0-3.03.59-3.35,1.06Z"/>
    <path class="cls-9" d="M31.92,73.35c.32-.46,2.81-1.06,3.35-1.06h16.04l-26.05,36.89c-.31.29-.26.95-.4,1.17-.1.05-.39-.1-.63.07-3.27,6.24-9.65,12.31-12.84,18.36-.84,1.6-.88,2.9.07,4.48l-.35.35c-.23-.13-.47-.24-.71-.35-.77-1.62-1.83-1.87-1.33-4.32,9.21-13.98,18.95-27.7,28.48-41.49,1.98-2.87,4.11-5.67,6.07-8.56.35-.51,2.72-3.83,2.39-4.13h-14.46c.18-.26.17-1.14.35-1.41Z"/>
    <path class="cls-8" d="M31.56,74.76h14.46c.33.3-2.04,3.62-2.39,4.13-1.96,2.89-4.09,5.69-6.07,8.56h-.35c.34-.48.21-1.19.47-1.65.47-.81,2.72-2.93,3.05-3.56.36-.71.21-2.17.42-2.49.16-.23.94-.15,1.26-.5.37-.4,1.15-2.72,1.15-3.43h-11.46c-.56.52-1.01,1.13-1.37,1.8-7.42,14.17-12.42,30.13-20.66,43.84-3.11,3.61-8.78,5.85-8.83,11.29s7.39,9.58,10.32,13.99c2.67,4.03,3.37,9.4,7.41,12.35.65.48,5.74,3.78,6.1,3.77,2.33-.06-.79-3.77-.91-4.4s.19-.61.71-.53l2.12,4.93c-1.63,3.12-4.13-.16-5.66-1.21-7.61-5.21-5.67-5.48-9.79-12.77s-17.08-12.71-8.87-22.13c2.75-3.16,6.14-4.96,8.46-8.82,7.68-12.77,11.88-31.06,20.45-43.17Z"/>
    <path class="cls-8" d="M29.8,157.93c.47.19.84.47,1.41.35l-.35-1.76,3.17,1.05-.71-1.58c1.16-1.42,1.7-.04,1.88.03,2.05.84,4.6,2,5.2,4.33l1.73-.32v.35c-.12.13-.23.21-.35.35h-1.76c-.89-2.36-3.4-3.66-5.64-4.58,1.66,1.76,3.71,2.87,4.58,5.28-.46.5-.62,1.97-2.25,1.79l-.22-.73c-.59-2.03-1.5-3.94-3.7-4.58-.64.46.16.75.42.99,1.05,1.02,2.16,1.94,2.22,3.59s-.82,1.63-2.24,1.34c-.52-.11-.82-.6-.94-.64.22-2.11-1.22-3.79-2.47-5.29ZM31.74,157.23c-.35.25.19.48.36.69.35-.23-.16-.47-.36-.69ZM37.56,160.4h-.7v1.41h.7v-1.41Z"/>
    <path class="cls-5" d="M51.31,89.92c-.6,1.32-1.51,2.56-2.38,3.79-6.11,8.69-20.37,24.56-23.56,33.57-.2.55.11,1.26-.86,1.06.01-.23.01-.47,0-.7s.02-.47,0-.7c.37-.26.56-.64.71-1.06.07-.18-.07-.53,0-.7l.35-.35c.04-.1-.04-.25,0-.35l.35-.35c.05-.1-.05-.26,0-.35l.35-.35c.05-.09-.05-.26,0-.35l.35-.35c.13-.22.21-.49.35-.7l.35-.35c.23-.35.47-.71.71-1.06l.35-.35c.14-.21.21-.5.35-.7l.71-.7c.24-.35.46-.71.71-1.06l.35-.35c.15-.2.21-.5.35-.7l.35-.35c.59-.82,1.17-1.65,1.76-2.47l.71-.7c1.39-1.91,2.79-4.03,4.23-5.99l.35-.35c.94-1.28,1.87-2.59,2.82-3.88l.35-.35c.15-.2.21-.51.35-.7l.35-.35,3.53-4.93.35-.35c.35-.47.71-.94,1.06-1.41l.35-.35c.15-.2.2-.51.35-.7l.35-.35c.22-.29.27-.6.35-.7l1.06-1.06c.15-.18.21-.54.35-.7l.71-.7c.22-.17.38-.37.71-.35Z"/>
    <path class="cls-8" d="M28.39,157.23c.27,1.17,1.36,1.76,1.91,2.85.52,1.03.46,2.23,1.27,3.14-.42.11-.9.76-1.4.91-.98.29-2.59-.07-2.48-1.26.01-.14.44-.34.3-1.13-.05-.27-1.55-2.93-1.71-3.1-.04-.05-1-.68-1.06-.7.67-1.18.98.64,1.06.7.8.64,2.39,1.08,2.13-.53-.03-.2-.94-.03-.72-.7.31-.92.57-.21.7-.18Z"/>
    <path class="cls-5" d="M24.51,133.61l8.11,17.97c-.37-.37-.99-.71-1.41-1.06-.62-1.15-1.2-2.35-1.76-3.52l-.35-.7c-.18-.37-.22-.77-.35-1.06-.27-.59-.25-1.25-1.06-1.06-.06-.32.07-.76,0-1.06-.26-1.1-.57-2.37-1.41-3.17-.04-.11.04-.25,0-.35l-.35-.35c-.06-.19.06-.51,0-.7l-.35-.35c-.04-.1.04-.25,0-.35l-.35-.35c-.06-.17.04-.49,0-.7-.03-.16-.19-.3-.35-.35-.17-.65-.25-1.44-.35-2.11-.04-.22.03-.48,0-.7Z"/>
    <path class="cls-3" d="M40.03,160.75v.35c-.29-.03-.87.15-1.06.35-.87-2.41-2.92-3.52-4.58-5.28,2.25.91,4.75,2.22,5.64,4.58Z"/>
    <path class="cls-6" d="M29.45,157.93c.1.04.25-.04.35,0,1.25,1.49,2.69,3.18,2.47,5.29-.12-.04-.58-.03-.71,0-.81-.9-.75-2.1-1.27-3.14-.55-1.09-1.64-1.68-1.91-2.85.12.03.27-.04.35,0l.71.7Z"/>
    <path class="cls-7" d="M26.27,158.63c.16.17,1.67,2.83,1.71,3.1.14.78-.29.99-.3,1.13h-.71l-2.12-4.93c.12.02.27-.03.35,0,.06.02,1.01.66,1.06.7Z"/>
    <path class="cls-2" d="M36.5,162.51h-1.06c-.06-1.65-1.18-2.57-2.22-3.59-.25-.25-1.06-.53-.42-.99,2.19.65,3.11,2.55,3.7,4.58Z"/>
    <path class="cls-8" d="M24.51,128.33c-.01.23,0,.47,0,.7-.06,1.64-.16,2,0,3.88.02.23-.03.48,0,.7s-.04.48,0,.7c-1.49-1.58-1.66-5.23,0-6.7.01.23.01.47,0,.7Z"/>
    <path class="cls-5" d="M24.51,132.91c-.16-1.88-.06-2.24,0-3.88.59.99.6,2.86,0,3.88Z"/>
    <path class="cls-5" d="M41.79,160.75c-.09.1.22.63-.19.72-.8.19-1.31-.35-1.57-.37v-.35h1.76Z"/>
    <path class="cls-8" d="M32.62,151.59c.12.12.23.24.35.35.15.15.21.58.35.7-1.76-.31-1.5-.97-2.12-2.11.42.34,1.04.69,1.41,1.06Z"/>
    <path class="cls-1" d="M10.41,133.26c-.26-.12-.7.08-1.25-.33-2.81-2.07.32-6.4,1.79-8.47,6.91-9.71,14.16-19.79,20.85-29.37,1.72-2.46,2.92-5.67,5.4-7.64h.35c-9.53,13.79-19.28,27.51-28.48,41.49-.5,2.45.56,2.71,1.33,4.32Z"/>
    <path class="cls-5" d="M11.11,133.61c.21.11.38.38.71.35-.48.46-.69.41-1.41.35-.07-.3.09-.86,0-1.06.24.11.48.23.71.35Z"/>
    <path class="cls-8" d="M27.69,143.13h-.7c.56-1.37-.63-1.8-.7-2.02-.12-.39.07-.91,0-1.15.84.8,1.15,2.07,1.41,3.17Z"/>
    <path class="cls-8" d="M38.97,155.82c-.07.01-.35.51-.7.35l-.36-1.06c.4.19.8.31,1.06.7Z"/>
    <path class="cls-8" d="M27.69,144.19c.8-.19.79.46,1.06,1.06-.25-.17-.86-.23-.99-.42-.16-.22-.03-.46-.06-.64Z"/>
    <path class="cls-8" d="M24.51,126.92c0-.06-.51-.35-.35-.7l1.06-.36c-.15.41-.33.79-.71,1.06Z"/>
    <path class="cls-1" d="M11.82,133.61c-.05.11.05.3,0,.35-.33.03-.5-.24-.71-.35l.35-.35c.07.12.26.22.35.35Z"/>
    <path class="cls-8" d="M29.45,147.01c-.11-.23-.24-.46-.35-.7l.35.7Z"/>
    <path class="cls-8" d="M42.49,158.99v-.7c.01.07.28.15.26.43,0,.13-.25.2-.26.27Z"/>
    <path class="cls-8" d="M25.57,124.45c.09-.2.32-.29.35-.35l-.35.35Z"/>
    <path class="cls-8" d="M25.22,125.16c.1-.26.34-.33.35-.35l-.35.35Z"/>
    <path class="cls-8" d="M25.92,123.75c.1-.2.32-.29.35-.35l-.35.35Z"/>
    <path class="cls-8" d="M26.27,123.04c.11-.19.31-.28.35-.35l-.35.35Z"/>
    <path class="cls-8" d="M41.08,102.95c.1-.14.27-.23.35-.35l-.35.35Z"/>
    <path class="cls-8" d="M41.79,101.9c.1-.13.22-.25.35-.35l-.35.35Z"/>
    <path class="cls-8" d="M32.97,113.88c.27-.37.61-.57.71-.7l-.71.7Z"/>
    <path class="cls-8" d="M25.22,136.79c-.14-.07-.31-.2-.35-.35.16.05.32.19.35.35Z"/>
    <path class="cls-8" d="M25.57,137.84s-.26-.09-.35-.35l.35.35Z"/>
    <path class="cls-8" d="M25.92,138.55s-.28-.16-.35-.35l.35.35Z"/>
    <path class="cls-8" d="M26.27,139.6s-.27-.09-.35-.35l.35.35Z"/>
    <path class="cls-8" d="M45.67,96.61c.1-.13.26-.22.35-.35l-.35.35Z"/>
    <path class="cls-8" d="M47.08,94.85c.1-.14.26-.23.35-.35l-.35.35Z"/>
    <path class="cls-8" d="M37.91,107.18c.1-.14.27-.24.35-.35l-.35.35Z"/>
    <path class="cls-8" d="M47.78,93.79c.11-.14.27-.24.35-.35l-.35.35Z"/>
    <path class="cls-8" d="M48.49,92.73c.4-.53.82-.77,1.06-1.06l-1.06,1.06Z"/>
    <path class="cls-8" d="M35.44,154.05c-.14-.07-.25-.24-.35-.35.14.07.26.23.35.35Z"/>
    <path class="cls-8" d="M28.04,120.57c.1-.14.27-.24.35-.35l-.35.35Z"/>
    <path class="cls-8" d="M40.03,156.17c-.13-.1-.25-.23-.35-.35.19.04.31.16.35.35Z"/>
    <path class="cls-8" d="M49.9,90.97c.28-.3.33-.41.71-.7l-.71.7Z"/>
    <path class="cls-8" d="M28.74,119.52c.27-.38.62-.58.71-.7l-.71.7Z"/>
    <path class="cls-8" d="M29.45,157.93l-.71-.7c.46.23.66.68.71.7Z"/>
    <path class="cls-8" d="M59.77,82.16l.35-.35c-.11.08-.21.25-.35.35Z"/>
    <path class="cls-8" d="M30.15,117.76c.1-.14.27-.24.35-.35l-.35.35Z"/>
    <path class="cls-8" d="M64,79.34l.35-.35c-.11.08-.21.25-.35.35Z"/>
    <path class="cls-8" d="M30.86,116.7c.1-.13.26-.23.35-.35l-.35.35Z"/>
    <path class="cls-8" d="M65.41,78.29l.35-.35c-.13.09-.22.26-.35.35Z"/>
    <path class="cls-8" d="M26.98,121.98c.1-.15.28-.24.35-.35l-.35.35Z"/>
    <rect class="cls-4" x="36.85" y="160.4" width=".7" height="1.41"/>
    <path class="cls-2" d="M31.74,157.23c.2.22.71.46.36.69-.17-.21-.71-.45-.36-.69Z"/>
  </g>
</svg>